<svg xmlns="http://www.w3.org/2000/svg" viewBox="0 0 490.26 194.14"><defs><style>.cls-1{fill:#f8a667;}</style></defs><title>car</title><g id="Layer_2" data-name="Layer 2"><g id="Layer_1-2" data-name="Layer 1"><path class="cls-1" d="M72.28,109.34a42.4,42.4,0,1,0,42.4,42.4A42.4,42.4,0,0,0,72.28,109.34Zm0,72.84a30.43,30.43,0,1,1,30.43-30.44A30.44,30.44,0,0,1,72.28,182.18Z"/><path class="cls-1" d="M490.26,136.46l-1.84-3.56s1.84-21.73-12.2-39.41-112.31-30-112.31-30S306.34,7.38,296,3.93c-14-4.67-203.29-6.74-232.5,2.8-11.23,3.93-37.06,43.81-37.62,50-7.3,2.8-12.36,14.6-12.36,14.6-6.18,2.24,0,6.17,0,6.17s-4.49,28.88-5,31.85c-16.29,9.71-3.93,26-3.93,26S8,142.64,3.36,146s2.81,10.67,2.81,10.67,20.28,13.26,20.53,8.42c-6.14-29,9.86-60.44,47.27-60.44,31.27,0,52,28.37,44.52,61.44l241-.08c-9.62-35.2,14.76-61.25,44.61-61.25,36.35,0,53.6,28.24,47.29,61.84,0,0,27.51,5.43,33.69-6.36,3.37-5.5,1-17.6,1-17.6A7,7,0,0,0,490.26,136.46Zm-329.91-77-92.2-2.13c-3.09-2.71,9.09-31.89,19-37.11h73.25Zm144.32,8.66a5,5,0,0,0-4.46-3.1s2.54-13.18-11-13.18-10.13,13.78-10.13,13.78l-98.51-.16V17.27h91.74l43,50.92ZM337.1,66,289.33,17.27s8.82-3,14.65-1.56,50.89,43.42,53.33,49.39Z"/><circle class="cls-1" cx="71.39" cy="142.73" r="1.91"/><circle class="cls-1" cx="62.27" cy="151.85" r="1.91"/><circle class="cls-1" cx="80.69" cy="151.85" r="1.91"/><circle class="cls-1" cx="71.48" cy="151.85" r="4.12"/><circle class="cls-1" cx="71.39" cy="161.5" r="1.91"/><path class="cls-1" d="M67.36,140V126.23c-3.93-1-9.51,1.37-10.63,5Z"/><path class="cls-1" d="M76,140.12l10.66-8.73c-1.72-3.67-7.08-6.49-10.58-5.07Z"/><path class="cls-1" d="M84,146.89l13.76.68c1.19-3.87-.9-9.57-4.44-10.86Z"/><path class="cls-1" d="M83.49,155.34l7.94,11.27c3.78-1.45,7-6.59,5.83-10.19Z"/><path class="cls-1" d="M76,163.57l.28,13.78c3.94.91,9.48-1.56,10.53-5.19Z"/><path class="cls-1" d="M66.41,162.77l-9.85,9.64c2,3.5,7.63,5.84,11,4.12Z"/><path class="cls-1" d="M59.82,155.36,46,155.4c-1,3.93,1.4,9.51,5,10.61Z"/><path class="cls-1" d="M59.35,147.65l-8.9-10.52c-3.64,1.78-6.38,7.18-4.91,10.66Z"/><path class="cls-1" d="M405,109.34a42.4,42.4,0,1,0,42.4,42.4A42.4,42.4,0,0,0,405,109.34Zm0,72.84a30.43,30.43,0,1,1,30.43-30.44A30.44,30.44,0,0,1,405,182.18Z"/><circle class="cls-1" cx="404.11" cy="142.73" r="1.91"/><circle class="cls-1" cx="394.99" cy="151.85" r="1.91"/><circle class="cls-1" cx="413.4" cy="151.85" r="1.91"/><circle class="cls-1" cx="404.2" cy="151.85" r="4.12"/><circle class="cls-1" cx="404.11" cy="161.5" r="1.91"/><path class="cls-1" d="M400.08,140V126.23c-3.93-1-9.51,1.37-10.63,5Z"/><path class="cls-1" d="M408.74,140.12l10.66-8.73c-1.72-3.67-7.08-6.49-10.58-5.07Z"/><path class="cls-1" d="M416.68,146.89l13.76.68c1.19-3.87-.9-9.57-4.44-10.86Z"/><path class="cls-1" d="M416.2,155.34l7.94,11.27c3.78-1.45,7-6.59,5.83-10.19Z"/><path class="cls-1" d="M408.67,163.57l.28,13.78c3.94.91,9.48-1.56,10.53-5.19Z"/><path class="cls-1" d="M399.12,162.77l-9.85,9.64c2,3.5,7.63,5.84,11,4.12Z"/><path class="cls-1" d="M392.53,155.36l-13.78,0c-1,3.93,1.4,9.51,5,10.61Z"/><path class="cls-1" d="M392.07,147.65l-8.9-10.52c-3.64,1.78-6.38,7.18-4.91,10.66Z"/></g></g></svg>