<svg xmlns="http://www.w3.org/2000/svg" width="267" height="117" viewBox="0 0 267 117">
    <path fill="#F9A666" fill-rule="evenodd" d="M66.91.682h185.86l.753 5.482 9.967 34.928v16.61l-2.847 20.423s5.595 1.179 5.62 1.33l.436 2.607-8.202 9.743-25.718-.553-.62-3.138-5.718 1.022v10.756l-4.45 7.894-7.887 6.83h-18.336l-7.62-6.83-1.853-6.47H70.461v-5.747s-2.434.577-2.766 0c-.331-.576 0 8.452 0 8.452l-3.477 5.816-8.061 6.686H40.158l-9.682-4.8-5.146-7.702-.877-9.506.877-5.379-5.236 6.433-16.441-2.226L0 81.029v-2.36l3.653-4.104v-15.14l2.92-3.028V52.91s.381-.576.628-.774c.247-.198 10.546-8.196 10.546-8.196L38.65 32.01 66.91.682zm53.672 9.245h50.646l3.614.593 2.273 2.151 1.867 2.698v29.175l-1.009 2.376-1.416 1.787-2.372 1.472h-53.603l-2.184-.472-3.156-1-.965-2.245V15.369l.965-2.698 2.317-2.15 3.023-.594zm106.511-.077H200l-2.104 1.074-1.662 1.653-.83 2.866 1.267 27.697 1.225 3.277 1.762 1.729 2.542 1.146 35.515-1.148 1.633-.472 1.535-2.567v-2.73L230.328 13.15l-.743-1.597-1.124-1.017-1.368-.686zM69.86 9.12l27.507-.4 1.828.4.612 1.452L97.52 32.09l-.68 1.604-.957 1.205-1.601.994H63.176l-1.474-.318-2.13-1.544-.652-1.516v-11.03l.652-2.475 8.563-9.047 1.724-.842z"/>
</svg>
