<svg xmlns="http://www.w3.org/2000/svg" width="405" height="184" viewBox="0 0 405 184">
    <path fill="#F9A666" fill-rule="evenodd" d="M63.74 120.15l10.924 4.312 69.45-8.527 63.841-19.115 2.44 5.885-7.155 5.48 7.404-.91-1.64 3.64-8.81 6.554 6.125-.591-2.548 5.657-8.67 6.162 6.24-.766-10.91 24.225-17.37-4.394-3.916.925 15.357 10.817.228 5.308-8.485 18.841 4.021-.494 61.908-74 14.806 1.239 1.732 2.28 11.894-.928 12.92-4.12 8.231-5.69.174-5.092-4.488-12.16-5.142-3.71-22.04 6.564 7.123-8.516 115.25-34.507 21.538-18.31-5.575-6.487-34.456-8.976-132.01 38.787L143.13.19l-2.741.337 12.018 13.077-4.152 5.075 7.922-.973 26.16 28.465-6.387 4.726 9.423-1.422 9.985 10.864-85.92 25.245-25.65-.029-69.036-35.3L.559 55.389l39.917 55.332L28.402 117l.472 3.84 11.58 1.431-19.644 26.847 8.182-1.005 34.749-27.964z"/>
</svg>
