<?xml version="1.0" encoding="UTF-8"?>
<svg width="71px" height="34px" viewBox="0 0 71 34" version="1.1" xmlns="http://www.w3.org/2000/svg" xmlns:xlink="http://www.w3.org/1999/xlink">
    <!-- Generator: Sketch 41.2 (35397) - http://www.bohemiancoding.com/sketch -->
    <title>The CO2 Problem Icon</title>
    <desc>Created with Sketch.</desc>
    <defs></defs>
    <g id="Page-1" stroke="none" stroke-width="1" fill="none" fill-rule="evenodd">
        <g id="Scrolling-Menu-Buttons" transform="translate(-187.000000, -220.000000)">
            <g id="Group" transform="translate(190.000000, 121.000000)">
                <g id="Group-9" transform="translate(0.000000, 102.000000)">
                    <g id="The-CO2-Problem-Icon">
                        <path d="M31.5185083,28.4515104 C43.6752039,28.4515104 62.7494543,28.4515104 62.7494543,28.4515104 C62.7494543,28.4515104 68.6156777,17.234316 61.4062055,12.2466009 C57.7739591,9.73371092 50.2825249,12.2466009 50.2825249,12.2466009 C50.2825249,12.2466009 48.4148629,1.42408564 40.8993768,0.145394293 C33.4908136,-1.11510511 28.0946056,6.23482979 28.0946056,6.23482979 C28.0946056,6.23482979 24.0705143,2.27394754 18.440254,5.46230998 C13.0701711,8.50333643 12.6622292,12.8386764 12.6622292,12.8386764 C12.6622292,12.8386764 6.71992967,11.090415 2.35750545,15.8159326 C-2.00491877,20.5414501 1.02316457,28.4515104 1.02316457,28.4515104 L31.5185083,28.4515104 Z" id="Oval-14" stroke="#65655E" stroke-width="5"></path>
                        <text id="CO" font-family="Montserrat-Bold, Montserrat" font-size="12" font-weight="bold" fill="#65655E">
                            <tspan x="23.0646977" y="22">CO</tspan>
                        </text>
                        <text id="2" font-family="Montserrat-Bold, Montserrat" font-size="9" font-weight="bold" fill="#65655E">
                            <tspan x="41.7775" y="24">2</tspan>
                        </text>
                    </g>
                </g>
            </g>
        </g>
    </g>
</svg>