<svg xmlns="http://www.w3.org/2000/svg" viewBox="0 0 79.3 268.13"><defs><style>.cls-1{fill:#f8a667;}</style></defs><title>temp</title><g id="Layer_2" data-name="Layer 2"><g id="Layer_2-2" data-name="Layer 2"><path class="cls-1" d="M62.4,196.27c-1.35-.85-3.31-6.85-3.3-8.44.06-21.82-.27-166-.27-169.88,0-8.73-8.48-17.83-19.55-18S19.61,10.28,19.61,18.34c0,4.82,0,147.86,0,171.08,0,1.74-2.38,6.07-3.69,7.22C4.24,206.91,0,216.43,0,230.19c0,16,16.43,37.94,39.53,37.94,23.8,0,39.77-22.07,39.77-39C79.3,214.32,71.36,201.88,62.4,196.27ZM39.53,260.69c-16.6,0-32.46-14.52-32.46-30.5,0-13.76,6.13-25.19,17.42-31.12,1.54-.81,2.34-3.68,2.34-5.41,0-23.23.17-170.5.17-175.32C27,14.2,31.08,7.57,39.21,7.57S52.32,13.74,52.32,18c0,3.91-.42,153.73-.48,175.55,0,1.59,1.38,5,2.75,5.8,10.9,6.54,16.77,15.44,16.77,30.3C71.36,246.48,56,260.69,39.53,260.69Z"/><path class="cls-1" d="M66.27,234.85c-3.07,12.26-14.37,21.28-26.78,21.37s-24.05-9.16-27.11-21.78c-3.11-12.82,2.49-25.27,14.73-31.18,4.07-2,5-4.4,4.92-8.5-.16-22.19-.07-44.39-.07-66.58v-7.83H46.8V128c0,22.41.07,44.82-.07,67.23,0,3.86.89,6.12,4.71,8C64.06,209.31,69.58,221.64,66.27,234.85Z"/><rect class="cls-1" x="57.83" y="55.9" width="14.68" height="6.25"/><rect class="cls-1" x="57.83" y="93" width="14.68" height="6.25"/><rect class="cls-1" x="57.83" y="130.09" width="14.68" height="6.25"/><rect class="cls-1" x="57.83" y="167.19" width="14.68" height="6.25"/></g></g></svg>