<?xml version="1.0" encoding="UTF-8"?>
<svg width="1441px" height="1069px" viewBox="0 0 1441 1069" version="1.1" xmlns="http://www.w3.org/2000/svg" xmlns:xlink="http://www.w3.org/1999/xlink">
    <!-- Generator: Sketch 41.2 (35397) - http://www.bohemiancoding.com/sketch -->
    <title>CO2 Problem Illustration2</title>
    <desc>Created with Sketch.</desc>
    <defs></defs>
    <g id="Page-1" stroke="none" stroke-width="1" fill="none" fill-rule="evenodd">
        <g id="Artboard-7" transform="translate(-46.000000, -52.000000)">
            <g id="CO2-Problem-Illustration2" transform="translate(46.000000, 48.000000)">
                <polygon id="Rectangle-33" fill="#88958D" points="0 188.211975 74.3310541 163.905845 164 188.211975 315.242377 241.948977 513.464358 269.058859 637.406865 200.616676 748.325749 228.966406 808.057516 269.058859 967.130076 304.743514 1056.31927 304.743514 1272.43656 269.058859 1366.65276 287.594214 1440 241.948977 1440 1053 1.13686838e-13 1053"></polygon>
                <polygon id="Rectangle-33" fill="#606D5D" points="1 345 1 232.156434 308.121221 291.658711 438.856553 345 704.388035 345 993.921131 345 1296.5975 417.38936 1441 470.335691 1441 1072.45133 1 1072.45133"></polygon>
                <g id="Group" transform="translate(63.000000, 138.000000)">
                    <polygon id="Combined-Shape" fill="#F9A666" points="231 0 244.174505 0 245.831892 135.07974 229.337381 135.07974"></polygon>
                    <polygon id="Combined-Shape-Copy" fill="#F9A666" points="170 22 181 22 182.631215 151.96679 167.084188 151.96679"></polygon>
                    <polygon id="Combined-Shape-Copy-2" fill="#F9A666" points="133 47 142 47 143.63244 171.804937 130.026391 175.150077"></polygon>
                    <polygon id="Combined-Shape-Copy-3" fill="#F9A666" points="104.035571 62 111 62 112.364271 184.07974 100.49727 184.07974"></polygon>
                    <polygon id="Rectangle-Copy-3" fill="#C77739" points="109.681061 158.908804 197.363517 135 197.363517 232.839617 109.681061 232.839617"></polygon>
                    <polygon id="Rectangle-Copy-3" fill="#C77739" points="163 144.908804 250.682455 121 250.682455 218.839617 163 218.839617"></polygon>
                    <polygon id="Rectangle-Copy-3" fill="#C77739" points="65.230533 183.66413 116.858265 174.703657 116.858265 220.410519 65.230533 220.410519"></polygon>
                    <polygon id="Rectangle-Copy-3" fill="#C77739" points="78 192 101.722327 192 101.722327 232.750183 78 226.755724"></polygon>
                    <polygon id="Rectangle-Copy-4" fill="#C77739" points="0.480133404 181.135735 22.7223271 169.750183 22.7223271 227.750183 0.480133404 221.530449"></polygon>
                    <polygon id="Rectangle" fill="#F5B685" points="197 135 253.363517 135 253.363517 232.839617 197 232.839617"></polygon>
                    <polygon id="Rectangle-Copy" fill="#F5B685" points="102 192 189.594393 192 189.594393 233.08 102 233.08"></polygon>
                    <polygon id="Rectangle-Copy" fill="#F5B685" points="117 175 173.363517 175 173.363517 233 117 233"></polygon>
                    <polygon id="Rectangle-Copy-2" fill="#F5B685" points="22 169.08 78.3635168 169.08 78.3635168 227.08 22 227.08"></polygon>
                    <polygon id="Rectangle" fill="#F5B685" points="250.714592 120.97392 286.363517 120.97392 286.363517 233 250.714592 233"></polygon>
                </g>
                <g id="Group-3" transform="translate(369.000000, 376.000000)">
                    <polygon id="Polygon-Copy-24" fill="#C7773A" points="85.8747528 36.2830975 99 16 111.05178 36.2830975 105.471325 36.2830975 117.192233 59.7937404 108.686521 59.7937404 122 81.3603837 102.475113 81.3603837 102.475113 102.19758 95.2965857 102.19758 95.2965857 81.3603837 76 81.3603837 89.0920466 59.7937404 79.5519217 59.7937404 92.4719842 36.2830975"></polygon>
                    <polygon id="Polygon-Copy-27" fill="#C7773A" points="45.8014101 25.078413 57.5 7 68.241804 25.078413 63.2679201 25.078413 73.7148162 46.0335513 66.1336379 46.0335513 78 65.2559942 60.5973829 65.2559942 60.5973829 83.8282777 54.1991307 83.8282777 54.1991307 65.2559942 37 65.2559942 48.6689981 46.0335513 40.1658433 46.0335513 51.6815511 25.078413"></polygon>
                    <polygon id="Polygon-Copy-25" fill="#C7773A" points="118.586742 17.6374761 130 -6.32383035e-13 140.479809 17.6374761 135.627239 17.6374761 145.819333 38.0815134 138.423061 38.0815134 150 56.8351163 133.021837 56.8351163 133.021837 74.9544172 126.77964 74.9544172 126.77964 56.8351163 110 56.8351163 121.384388 38.0815134 113.088628 38.0815134 124.323465 17.6374761"></polygon>
                    <polygon id="Polygon-Copy-26" fill="#C7773A" points="147.607358 32.7338584 160.377191 13 172.102625 32.7338584 166.673281 32.7338584 178.076802 55.6078647 169.801413 55.6078647 182.754382 76.5905122 163.758202 76.5905122 163.758202 96.863465 156.77406 96.863465 156.77406 76.5905122 138 76.5905122 150.737532 55.6078647 141.45574 55.6078647 154.025945 32.7338584"></polygon>
                    <polygon id="Polygon-Copy-28" fill="#C7773A" points="186.728067 22.8737285 197 7 206.431828 22.8737285 202.064515 22.8737285 211.2374 41.2733621 204.580755 41.2733621 215 58.1516047 199.719653 58.1516047 199.719653 74.4589755 194.101676 74.4589755 194.101676 58.1516047 179 58.1516047 189.24595 41.2733621 181.779765 41.2733621 191.891118 22.8737285"></polygon>
                    <polygon id="Polygon-Copy-15" fill="#F9A666" points="11.2111909 62.0281895 26.1127946 39 39.7956493 62.0281895 33.4599415 62.0281895 46.7671441 88.7207369 37.1102781 88.7207369 52.2255892 113.206186 30.058225 113.206186 30.058225 136.863465 21.9081643 136.863465 21.9081643 113.206186 0 113.206186 14.8639097 88.7207369 4.03263488 88.7207369 18.7012843 62.0281895"></polygon>
                    <polygon id="Polygon-Copy-16" fill="#F9A666" points="63.2111909 62.0281895 78.1127946 39 91.7956493 62.0281895 85.4599415 62.0281895 98.7671441 88.7207369 89.1102781 88.7207369 104.225589 113.206186 82.058225 113.206186 82.058225 136.863465 73.9081643 136.863465 73.9081643 113.206186 52 113.206186 66.8639097 88.7207369 56.0326349 88.7207369 70.7012843 62.0281895"></polygon>
                    <polygon id="Polygon-Copy-17" fill="#F9A666" points="115.211191 62.0281895 130.112795 39 143.795649 62.0281895 137.459942 62.0281895 150.767144 88.7207369 141.110278 88.7207369 156.225589 113.206186 134.058225 113.206186 134.058225 136.863465 125.908164 136.863465 125.908164 113.206186 104 113.206186 118.86391 88.7207369 108.032635 88.7207369 122.701284 62.0281895"></polygon>
                    <polygon id="Polygon-Copy-18" fill="#F9A666" points="168.211191 62.0281895 183.112795 39 196.795649 62.0281895 190.459942 62.0281895 203.767144 88.7207369 194.110278 88.7207369 209.225589 113.206186 187.058225 113.206186 187.058225 136.863465 178.908164 136.863465 178.908164 113.206186 157 113.206186 171.86391 88.7207369 161.032635 88.7207369 175.701284 62.0281895"></polygon>
                    <polygon id="Polygon-Copy-20" fill="#F9A666" transform="translate(171.272629, 169.133796) rotate(40.000000) translate(-171.272629, -169.133796) " points="168.336479 134.871456 174.208779 134.871456 174.208779 203.396137 168.336479 203.396137"></polygon>
                    <polygon id="Polygon-Copy-21" fill="#F9A666" transform="translate(183.200291, 161.477489) rotate(-70.000000) translate(-183.200291, -161.477489) " points="180.264141 127.215149 186.136441 127.215149 186.136441 195.739829 180.264141 195.739829"></polygon>
                    <polygon id="Polygon-Copy-22" fill="#F9A666" transform="translate(175.546151, 186.309358) rotate(-80.000000) translate(-175.546151, -186.309358) " points="172.295206 139.618387 178.797097 139.618387 178.797097 233.00033 172.295206 233.00033"></polygon>
                    <polygon id="Polygon-Copy-23" fill="#F9A666" transform="translate(149.759826, 157.423565) rotate(-100.000000) translate(-149.759826, -157.423565) " points="147.294453 128.654784 152.225199 128.654784 152.225199 186.192346 147.294453 186.192346"></polygon>
                    <polygon id="Polygon-Copy-19" fill="#F9A666" points="217.211191 62.0281895 232.112795 39 245.795649 62.0281895 239.459942 62.0281895 252.767144 88.7207369 243.110278 88.7207369 258.225589 113.206186 236.058225 113.206186 236.058225 136.863465 227.908164 136.863465 227.908164 113.206186 206 113.206186 220.86391 88.7207369 210.032635 88.7207369 224.701284 62.0281895"></polygon>
                </g>
                <path d="M1440.65461,342.951333 L1441,477.77812 L1222.11455,477.77812 L1148.08229,437.399259 L1074.57215,411.38906 L990.639213,344.855105 C990.639213,344.855105 1037.64798,346.235283 1054.93266,346.266823 C1072.21733,346.298362 1081.24868,339.785001 1100.96199,339.785001 C1120.67531,339.785001 1130.03443,346.266823 1144.81009,346.266823 C1159.58576,346.266823 1167.52956,339.785001 1186.55213,339.785001 C1205.57469,339.785001 1209.09521,347.923752 1230.07852,347.923752 C1251.06183,347.923752 1249.20487,339.785001 1271.74718,339.785001 C1295.41844,339.785001 1293.14255,347.923752 1310.46243,347.923752 C1330.98994,347.923752 1332.25367,339.785001 1355.49742,339.785001 C1378.74118,339.785001 1386.09148,347.923752 1403.79746,347.923752 C1421.50344,347.923752 1440.65461,342.951333 1440.65461,342.951333 Z" id="Rectangle-35" fill="#E0EDF5"></path>
                <path d="M1441,361.210292 L1441,477.77812 L1222.11455,477.77812 L1148.08229,437.399259 L1074.57215,411.38906 L1010.21892,360.424243 C1010.21892,360.424243 1037.99337,364.494242 1055.27805,364.525782 C1072.56273,364.557321 1081.59407,358.04396 1101.30738,358.04396 C1121.0207,358.04396 1130.37982,364.525782 1145.15548,364.525782 C1159.93115,364.525782 1167.87495,358.04396 1186.89752,358.04396 C1205.92008,358.04396 1209.4406,366.182711 1230.42391,366.182711 C1251.40722,366.182711 1249.55026,358.04396 1272.09257,358.04396 C1295.76383,358.04396 1293.48794,366.182711 1310.80782,366.182711 C1331.33533,366.182711 1332.59906,358.04396 1355.84281,358.04396 C1379.08657,358.04396 1386.43687,366.182711 1404.14285,366.182711 C1421.84883,366.182711 1441,361.210292 1441,361.210292 Z" id="Rectangle-35" fill="#D6E3EB"></path>
                <path d="M1441,383.615242 L1441,477.77812 L1222.11455,477.77812 L1148.08229,437.399259 L1074.57215,411.38906 L1043.67134,386.930732 C1043.67134,386.930732 1037.99337,386.899192 1055.27805,386.930732 C1072.56273,386.962271 1081.59407,380.44891 1101.30738,380.44891 C1121.0207,380.44891 1130.37982,386.930732 1145.15548,386.930732 C1159.93115,386.930732 1167.87495,380.44891 1186.89752,380.44891 C1205.92008,380.44891 1209.4406,388.587661 1230.42391,388.587661 C1251.40722,388.587661 1249.55026,380.44891 1272.09257,380.44891 C1295.76383,380.44891 1293.48794,388.587661 1310.80782,388.587661 C1331.33533,388.587661 1332.59906,380.44891 1355.84281,380.44891 C1379.08657,380.44891 1386.43687,388.587661 1404.14285,388.587661 C1421.84883,388.587661 1441,383.615242 1441,383.615242 Z" id="Rectangle-35" fill="#BDD8E9"></path>
                <polygon id="Rectangle-36" fill="#F5B685" transform="translate(382.539457, 64.609353) rotate(-5.000000) translate(-382.539457, -64.609353) " points="316.884945 44.4785306 339.274665 32.9046144 367.83847 35.9321865 405.654949 7.35421328 454.977795 10.8980073 469.419405 32.2724581 405.654949 58.725789 344.228763 73.2411714 295.65951 121.864492"></polygon>
                <g id="Group-2" transform="translate(854.000000, 254.000000)" fill="#F9A666">
                    <polygon id="Rectangle-37" points="31 39 31 35.6622869 35 39.5392873 35 91 31 91"></polygon>
                    <polygon id="Rectangle-37-Copy" transform="translate(17.450253, 21.565631) rotate(-7.000000) translate(-17.450253, -21.565631) " points="6.1601831 1.69722117 27.2438245 18.1356014 32.5920209 41.4340409 8.15195567 31.2153496 2.30848562 21.565631"></polygon>
                    <polygon id="Rectangle-37-Copy-2" transform="translate(49.042743, 39.227447) scale(-1, 1) rotate(-6.000000) translate(-49.042743, -39.227447) " points="36.6537631 19.3590371 57.7374044 35.7974173 63.0856009 59.0958568 38.6455356 48.8771655 34.9998861 39.2274469"></polygon>
                </g>
                <g id="Group-2-Copy" transform="translate(937.000000, 319.000000) scale(-1, 1) translate(-937.000000, -319.000000) translate(918.000000, 293.000000)" fill="#F9A666">
                    <polygon id="Rectangle-37" points="17.7142857 22.2857143 17.7142857 20.3784497 20 22.5938784 20 52 17.7142857 52"></polygon>
                    <polygon id="Rectangle-37-Copy" transform="translate(9.971573, 12.323218) rotate(-7.000000) translate(-9.971573, -12.323218) " points="3.52010463 0.969840667 15.5678997 10.3632008 18.624012 23.6765948 4.65826038 17.8373426 1.31913464 12.3232177"></polygon>
                    <polygon id="Rectangle-37-Copy-2" transform="translate(28.024425, 22.415684) scale(-1, 1) rotate(-6.000000) translate(-28.024425, -22.415684) " points="20.9450075 11.0623069 32.9928025 20.455667 36.0489148 33.769061 22.0831632 27.9298089 19.9999349 22.415684"></polygon>
                </g>
                <g id="Group-2-Copy-2" transform="translate(858.500000, 327.500000) scale(-1, 1) translate(-858.500000, -327.500000) translate(846.000000, 310.000000)" fill="#F9A666">
                    <polygon id="Rectangle-37" points="11.6541353 15.5714286 11.6541353 14.3243709 13.1578947 15.7729205 13.1578947 35 11.6541353 35"></polygon>
                    <polygon id="Rectangle-37-Copy" transform="translate(6.560246, 9.057489) rotate(-7.000000) translate(-6.560246, -9.057489) " points="2.31585831 1.63412659 10.2420393 7.77593898 12.2526394 16.4808504 3.06464499 12.6628779 0.867851739 9.05748852"></polygon>
                    <polygon id="Rectangle-37-Copy-2" transform="translate(18.437122, 15.656409) scale(-1, 1) rotate(-6.000000) translate(-18.437122, -15.656409) " points="13.7796102 8.23304682 21.7057911 14.3748592 23.7163913 23.0797707 14.5283969 19.2617981 13.1578519 15.6564087"></polygon>
                </g>
            </g>
        </g>
    </g>
</svg>