<svg xmlns="http://www.w3.org/2000/svg" viewBox="0 0 504.1 256.98"><defs><style>.cls-1{fill:#f8a667;}</style></defs><title>nautilus</title><g id="Layer_2" data-name="Layer 2"><g id="Layer_3" data-name="Layer 3"><path class="cls-1" d="M328.29,0s28,12.06,34.31,21.39c0,0-14.92,35.8-26.48,45.87-1.86-6.71-13.05-11.56-16.41-13.05C329.41,44.51,328.29,0,328.29,0Z"/><path class="cls-1" d="M369.28,19.18S389.67,39.53,392,49.94c0,0-25.59,26.28-39.27,31.1.7-6.55-7.45-14.71-9.88-17.2C354.75,58.7,369.28,19.18,369.28,19.18Z"/><path class="cls-1" d="M398.17,47.44s9.36,16,7.39,29.42c0,0-30.86,16.47-44.5,16.72,1.54-3.55-.83-11.91-2.21-14.85C370.42,79.38,398.17,47.44,398.17,47.44Z"/><path class="cls-1" d="M411.56,77.84A51.7,51.7,0,0,1,403,109.43s-27.4,3.08-40.41-1c1.73-4.4,1.25-8,.88-11.26C385.42,97.23,411.56,77.84,411.56,77.84Z"/><path class="cls-1" d="M408.17,113.75s-.74,13.49-15.49,24.52c0,0-22.75-3.55-36.94-15.65,4-2.74,7.2-6.66,7.9-9.84C385.59,116.28,408.17,113.75,408.17,113.75Z"/><path class="cls-1" d="M393.49,143.75a45,45,0,0,1-26.78,18.07s-13.95-11.41-21.89-28.29a17.24,17.24,0,0,0,10.61-6C369.15,139.56,393.49,143.75,393.49,143.75Z"/><path class="cls-1" d="M365.74,166.18s-8.9,10.84-26.91,7c0,0-8-16.15-8.26-34.8a17.24,17.24,0,0,0,12.15-1.11C350.25,153.94,365.74,166.18,365.74,166.18Z"/><path class="cls-1" d="M335,178.11a76.59,76.59,0,0,1-27.27-7.42,88.54,88.54,0,0,1,7.48-34.37c3.74,3.14,7.11,5.16,10.36,5C325.2,159.56,335,178.11,335,178.11Z"/><path class="cls-1" d="M303.47,173.28a33.43,33.43,0,0,1-21.76-14.36s7-18.13,22.25-28.92c3.11,4.51,5,5.84,7.9,7.31C302.41,152.93,303.47,173.28,303.47,173.28Z"/><path class="cls-1" d="M259.32,137.3s-7.49-12.14-3-26.68c0,0,18.5-7,36.47-2-.62,5-1,6.21-.3,9.39C274.43,120.53,259.32,137.3,259.32,137.3Z"/><path class="cls-1" d="M253.28,106.8s-2.16-8.74,8.11-20c0,0,21.5-4.41,36.39,10.48-3.14,1.73-5,2.9-5.44,8.26C274.89,100.18,253.28,106.8,253.28,106.8Z"/><path class="cls-1" d="M253.28,106.8s-2.16-8.74,8.11-20c0,0,21.5-4.41,36.39,10.48-3.14,1.73-5,2.9-5.44,8.26C274.89,100.18,253.28,106.8,253.28,106.8Z"/><path class="cls-1" d="M265.24,81s7-12.79,22.1-12.79c0,0,12.57,3.71,18.55,22.75-3.45.18-5.18-.09-8.11,2.53C284.38,82.41,265.24,81,265.24,81Z"/><path class="cls-1" d="M286.68,63.41a23.32,23.32,0,0,1,25.17-1.8s4.36,6.65,5.3,27.43c-3.24-1.19-4.73-2.12-8.45-.86C302,71.8,286.68,63.41,286.68,63.41Z"/><path class="cls-1" d="M314.6,59.78s7.76.56,18.19,10c0,0,2.21,5.58-4.71,23A12,12,0,0,0,320.41,89C321.37,73.25,314.6,59.78,314.6,59.78Z"/><path class="cls-1" d="M337.19,70.51s11,1.13,12.9,14c0,0-.8,5.16-16.76,16-.84-3.07-1.07-5.72-3.76-7.76C338.4,79.7,337.19,70.51,337.19,70.51Z"/><path class="cls-1" d="M353.68,84.2s7.39,10.38,4,21.75c0,0-3.42,2.95-22.72,3.68.92-3,0-3.86-.06-7.58C349.4,95.63,353.68,84.2,353.68,84.2Z"/><path class="cls-1" d="M359.07,109.63s-4.13,10.48-12.89,16.12c0,0-4.17-1.65-15.19-10.1,2.13-1.6,1.51-1.39,3.32-3.85C347.1,113.84,359.07,109.63,359.07,109.63Z"/><path class="cls-1" d="M278,158.92s7.68-19.3,21.93-30.73c-2.23-2.37-5.33-5.66-5.91-8.58-5.58.9-29.24,13.19-31.18,21.13C262.66,145.76,278,158.92,278,158.92Z"/><path class="cls-1" d="M328.9,98.26s-8.26-6.08-13.68-6.08-13.68,6.08-13.68,6.08Z"/><path class="cls-1" d="M318.45,101.68s-16.53,0-19.28,0c-3.54,3.08-2.38,13.48,2.75,22,.94-5.15,9.94-15.22,16.53-16.92A21.65,21.65,0,0,1,318.45,101.68Z"/><path class="cls-1" d="M319.88,113.46a8.75,8.75,0,0,1-4-3.32s-11,11.21-10,14.44c1.06,2.93,10.75,9.59,16,10.35C318.45,128.71,318.39,114.14,319.88,113.46Z"/><path class="cls-1" d="M344.82,128.28c0-.77-13.73-5.41-16.77-11.4a23.13,23.13,0,0,1-5.32,0s.66,11.3,3.32,15.39C329.57,134.93,343.46,130.81,344.82,128.28Z"/><path class="cls-1" d="M445.34,125.67s19.71,8.5,24.18,15.07c0,0-10.51,25.23-18.66,32.33-1.31-4.73-9.2-8.15-11.56-9.2C446.13,157,445.34,125.67,445.34,125.67Z"/><path class="cls-1" d="M474.23,139.18s14.37,14.34,16,21.68c0,0-18,18.52-27.67,21.92.49-4.62-5.25-10.37-7-12.12C464,167,474.23,139.18,474.23,139.18Z"/><path class="cls-1" d="M494.59,159.1s6.59,11.25,5.21,20.73c0,0-21.74,11.6-31.36,11.78,1.08-2.5-.58-8.39-1.56-10.47C475,181.61,494.59,159.1,494.59,159.1Z"/><path class="cls-1" d="M504,180.52a36.43,36.43,0,0,1-6,22.26S478.69,205,469.52,202a15.12,15.12,0,0,0,.62-7.94C485.6,194.18,504,180.52,504,180.52Z"/><path class="cls-1" d="M501.63,205.82s-.52,9.51-10.91,17.28c0,0-16-2.5-26-11,2.84-1.93,5.07-4.7,5.57-6.93A133.61,133.61,0,0,0,501.63,205.82Z"/><path class="cls-1" d="M491.29,227a31.73,31.73,0,0,1-18.87,12.73A64.18,64.18,0,0,1,457,219.77a12.15,12.15,0,0,0,7.47-4.25C474.14,224,491.29,227,491.29,227Z"/><path class="cls-1" d="M471.74,242.77s-6.27,7.64-19,5a64.18,64.18,0,0,1-5.82-24.52,12.15,12.15,0,0,0,8.56-.78C460.82,234.15,471.74,242.77,471.74,242.77Z"/><path class="cls-1" d="M450.07,251.18A54,54,0,0,1,430.85,246a62.39,62.39,0,0,1,5.27-24.22c2.63,2.21,5,3.64,7.3,3.51C443.17,238.11,450.07,251.18,450.07,251.18Z"/><path class="cls-1" d="M427.85,247.77a23.56,23.56,0,0,1-15.34-10.12s5-12.78,15.68-20.38c2.19,3.18,3.52,4.12,5.57,5.15C427.1,233.44,427.85,247.77,427.85,247.77Z"/><path class="cls-1" d="M396.74,222.42a24.64,24.64,0,0,1-2.1-18.8s13-4.94,25.7-1.43c-.43,3.52-.71,4.38-.21,6.62C407.39,210.6,396.74,222.42,396.74,222.42Z"/><path class="cls-1" d="M392.48,200.93s-1.52-6.16,5.71-14.08c0,0,15.15-3.11,25.65,7.38-2.21,1.22-3.5,2-3.83,5.82C407.71,196.26,392.48,200.93,392.48,200.93Z"/><path class="cls-1" d="M392.48,200.93s-1.52-6.16,5.71-14.08c0,0,15.15-3.11,25.65,7.38-2.21,1.22-3.5,2-3.83,5.82C407.71,196.26,392.48,200.93,392.48,200.93Z"/><path class="cls-1" d="M400.91,182.78s4.94-9,15.57-9c0,0,8.86,2.61,13.07,16-2.43.12-3.65-.06-5.71,1.78C414.4,183.74,400.91,182.78,400.91,182.78Z"/><path class="cls-1" d="M416,170.35a16.43,16.43,0,0,1,17.74-1.27s3.07,4.68,3.73,19.33c-2.28-.84-3.33-1.49-6-.61C426.83,176.26,416,170.35,416,170.35Z"/><path class="cls-1" d="M435.7,167.79s5.47.4,12.82,7c0,0,1.56,3.93-3.32,16.24a8.43,8.43,0,0,0-5.4-2.66A45.12,45.12,0,0,0,435.7,167.79Z"/><path class="cls-1" d="M451.61,175.35s7.73.8,9.09,9.89c0,0-.57,3.64-11.81,11.3-.59-2.16-.75-4-2.65-5.47C452.47,181.83,451.61,175.35,451.61,175.35Z"/><path class="cls-1" d="M463.23,185s5.21,7.31,2.85,15.32c0,0-2.41,2.08-16,2.59.65-2.15,0-2.72,0-5.34C460.22,193.06,463.23,185,463.23,185Z"/><path class="cls-1" d="M467,202.92s-2.91,7.39-9.08,11.36c0,0-2.94-1.16-10.7-7.12,1.5-1.13,1.06-1,2.34-2.71A39.92,39.92,0,0,0,467,202.92Z"/><path class="cls-1" d="M409.89,237.65s5.41-13.6,15.45-21.65c-1.57-1.67-3.76-4-4.16-6-3.93.64-20.6,9.29-22,14.89C399.1,228.38,409.89,237.65,409.89,237.65Z"/><path class="cls-1" d="M445.77,194.91s-5.82-4.28-9.64-4.28-9.64,4.28-9.64,4.28Z"/><path class="cls-1" d="M438.41,197.32s-11.65,0-13.59,0c-2.5,2.17-1.68,9.5,1.94,15.53.66-3.63,7-10.72,11.65-11.92A15.25,15.25,0,0,1,438.41,197.32Z"/><path class="cls-1" d="M439.41,205.62a6.17,6.17,0,0,1-2.81-2.34s-7.73,7.9-7,10.18c.75,2.07,7.58,6.76,11.26,7.3C438.41,216.37,438.36,206.1,439.41,205.62Z"/><path class="cls-1" d="M457,216.06c0-.54-9.68-3.82-11.82-8a16.3,16.3,0,0,1-3.75,0s.47,8,2.34,10.85C446.24,220.75,456,217.85,457,216.06Z"/><path class="cls-1" d="M217.7,151.68s16.54,7.13,20.29,12.64c0,0-8.82,21.17-15.66,27.12-1.1-4-7.72-6.84-9.7-7.72C218.36,178,217.7,151.68,217.7,151.68Z"/><path class="cls-1" d="M241.93,163S254,175,255.36,181.2c0,0-15.13,15.54-23.22,18.39.41-3.87-4.4-8.7-5.84-10.17C233.34,186.38,241.93,163,241.93,163Z"/><path class="cls-1" d="M259,179.72s5.53,9.44,4.37,17.39c0,0-18.24,9.74-26.31,9.88.91-2.1-.49-7-1.31-8.78C242.6,198.61,259,179.72,259,179.72Z"/><path class="cls-1" d="M266.92,197.69a30.57,30.57,0,0,1-5.05,18.68s-16.2,1.82-23.89-.62a12.68,12.68,0,0,0,.52-6.66C251.47,209.16,266.92,197.69,266.92,197.69Z"/><path class="cls-1" d="M264.92,218.92s-.44,8-9.16,14.5c0,0-13.45-2.1-21.84-9.25,2.38-1.62,4.26-3.94,4.67-5.82A112.09,112.09,0,0,0,264.92,218.92Z"/><path class="cls-1" d="M256.24,236.66a26.62,26.62,0,0,1-15.83,10.68,53.84,53.84,0,0,1-12.94-16.72,10.19,10.19,0,0,0,6.27-3.56C241.86,234.18,256.24,236.66,256.24,236.66Z"/><path class="cls-1" d="M239.84,249.92s-5.26,6.41-15.91,4.16A53.84,53.84,0,0,1,219,233.5a10.19,10.19,0,0,0,7.18-.66C230.68,242.69,239.84,249.92,239.84,249.92Z"/><path class="cls-1" d="M221.67,257a45.28,45.28,0,0,1-16.13-4.38A52.35,52.35,0,0,1,210,232.27c2.21,1.85,4.2,3.05,6.13,2.94C215.87,246,221.67,257,221.67,257Z"/><path class="cls-1" d="M203,254.12a19.76,19.76,0,0,1-12.87-8.49s4.16-10.72,13.15-17.1c1.84,2.67,3,3.45,4.67,4.32C202.4,242.09,203,254.12,203,254.12Z"/><path class="cls-1" d="M176.92,232.85a20.67,20.67,0,0,1-1.76-15.78s10.94-4.14,21.56-1.2c-.36,3-.59,3.67-.18,5.55C185.85,222.93,176.92,232.85,176.92,232.85Z"/><path class="cls-1" d="M173.35,214.82s-1.27-5.17,4.79-11.82c0,0,12.71-2.61,21.52,6.19-1.85,1-2.94,1.72-3.22,4.88C186.12,210.9,173.35,214.82,173.35,214.82Z"/><path class="cls-1" d="M173.35,214.82s-1.27-5.17,4.79-11.82c0,0,12.71-2.61,21.52,6.19-1.85,1-2.94,1.72-3.22,4.88C186.12,210.9,173.35,214.82,173.35,214.82Z"/><path class="cls-1" d="M180.42,199.59s4.15-7.56,13.07-7.56c0,0,7.43,2.19,11,13.45-2,.1-3.06-.05-4.79,1.5C191.74,200.4,180.42,199.59,180.42,199.59Z"/><path class="cls-1" d="M193.1,189.16A13.79,13.79,0,0,1,208,188.1s2.58,3.93,3.13,16.22c-1.92-.71-2.8-1.25-5-.51C202.17,194.13,193.1,189.16,193.1,189.16Z"/><path class="cls-1" d="M209.6,187s4.59.33,10.75,5.9c0,0,1.31,3.3-2.79,13.63a7.07,7.07,0,0,0-4.53-2.24A37.85,37.85,0,0,0,209.6,187Z"/><path class="cls-1" d="M223,193.36s6.48.67,7.63,8.3c0,0-.48,3.05-9.91,9.48-.5-1.81-.63-3.38-2.22-4.59C223.68,198.8,223,193.36,223,193.36Z"/><path class="cls-1" d="M232.7,201.46s4.37,6.14,2.39,12.86c0,0-2,1.74-13.43,2.17.54-1.8,0-2.28,0-4.48C230.17,208.21,232.7,201.46,232.7,201.46Z"/><path class="cls-1" d="M235.89,216.49s-2.44,6.2-7.62,9.53c0,0-2.46-1-9-6,1.26-.94.89-.82,2-2.27A33.49,33.49,0,0,0,235.89,216.49Z"/><path class="cls-1" d="M188,245.63s4.54-11.41,13-18.17c-1.32-1.4-3.15-3.35-3.49-5.07-3.3.53-17.29,7.8-18.44,12.49C178.9,237.85,188,245.63,188,245.63Z"/><path class="cls-1" d="M218.06,209.77s-4.89-3.59-8.09-3.59-8.09,3.59-8.09,3.59Z"/><path class="cls-1" d="M211.88,211.79s-9.77,0-11.4,0c-2.09,1.82-1.41,8,1.63,13,.55-3,5.88-9,9.77-10A12.8,12.8,0,0,1,211.88,211.79Z"/><path class="cls-1" d="M212.72,218.75a5.17,5.17,0,0,1-2.36-2s-6.48,6.63-5.91,8.54c.63,1.73,6.36,5.67,9.45,6.12C211.88,227.77,211.84,219.16,212.72,218.75Z"/><path class="cls-1" d="M227.47,227.51c0-.46-8.12-3.2-9.92-6.74a13.67,13.67,0,0,1-3.15,0s.39,6.68,2,9.1C218.45,231.45,226.66,229,227.47,227.51Z"/><path class="cls-1" d="M71,86.83S97.46,98.23,103.45,107c0,0-14.09,33.82-25,43.34C76.67,144,66.1,139.45,62.93,138,72.09,128.88,71,86.83,71,86.83Z"/><path class="cls-1" d="M109.76,105S129,124.18,131.21,134c0,0-24.18,24.82-37.09,29.38.66-6.19-7-13.9-9.33-16.24C96,142.29,109.76,105,109.76,105Z"/><path class="cls-1" d="M137,131.65s8.84,15.09,7,27.79c0,0-29.15,15.56-42,15.79,1.45-3.35-.78-11.25-2.09-14C110.84,161.82,137,131.65,137,131.65Z"/><path class="cls-1" d="M149.69,160.36a48.84,48.84,0,0,1-8.07,29.85s-25.89,2.91-38.17-1c1.63-4.16,1.18-7.58.83-10.64C125,178.68,149.69,160.36,149.69,160.36Z"/><path class="cls-1" d="M146.5,194.29s-.7,12.75-14.63,23.16c0,0-21.49-3.35-34.9-14.78,3.81-2.59,6.8-6.3,7.47-9.3C125.16,196.67,146.5,194.29,146.5,194.29Z"/><path class="cls-1" d="M132.63,222.63a42.53,42.53,0,0,1-25.3,17.07S94.15,228.92,86.65,213a16.29,16.29,0,0,0,10-5.69C109.64,218.67,132.63,222.63,132.63,222.63Z"/><path class="cls-1" d="M106.42,243.81S98,254.06,81,250.46c0,0-7.55-15.26-7.81-32.88a16.29,16.29,0,0,0,11.48-1C91.78,232.26,106.42,243.81,106.42,243.81Z"/><path class="cls-1" d="M77.38,255.09a72.35,72.35,0,0,1-25.77-7,83.64,83.64,0,0,1,7.07-32.47c3.53,3,6.72,4.88,9.79,4.7C68.12,237.57,77.38,255.09,77.38,255.09Z"/><path class="cls-1" d="M47.59,250.52A31.58,31.58,0,0,1,27,237s6.64-17.13,21-27.32c2.93,4.26,4.72,5.52,7.46,6.9C46.59,231.3,47.59,250.52,47.59,250.52Z"/><path class="cls-1" d="M5.88,216.53s-7.08-11.47-2.81-25.21c0,0,17.47-6.62,34.46-1.92-.58,4.72-.95,5.87-.28,8.87C20.15,200.69,5.88,216.53,5.88,216.53Z"/><path class="cls-1" d="M.18,187.72s-2-8.25,7.66-18.88c0,0,20.31-4.17,34.38,9.9-3,1.63-4.69,2.74-5.14,7.8C20.59,181.47.18,187.72.18,187.72Z"/><path class="cls-1" d="M.18,187.72s-2-8.25,7.66-18.88c0,0,20.31-4.17,34.38,9.9-3,1.63-4.69,2.74-5.14,7.8C20.59,181.47.18,187.72.18,187.72Z"/><path class="cls-1" d="M11.47,163.39s6.62-12.08,20.88-12.08c0,0,11.87,3.51,17.53,21.49-3.26.17-4.9-.08-7.66,2.39C29.56,164.68,11.47,163.39,11.47,163.39Z"/><path class="cls-1" d="M31.73,146.74A22,22,0,0,1,55.51,145s4.12,6.28,5,25.91c-3.06-1.13-4.47-2-8-.82C46.22,154.66,31.73,146.74,31.73,146.74Z"/><path class="cls-1" d="M58.11,143.31s7.33.53,17.18,9.43c0,0,2.09,5.27-4.45,21.77a11.29,11.29,0,0,0-7.24-3.57C64.49,156,58.11,143.31,58.11,143.31Z"/><path class="cls-1" d="M79.44,153.44s10.36,1.07,12.19,13.26c0,0-.76,4.88-15.83,15.15-.8-2.9-1-5.4-3.55-7.33C80.59,162.13,79.44,153.44,79.44,153.44Z"/><path class="cls-1" d="M95,166.38s7,9.8,3.82,20.54c0,0-3.23,2.78-21.46,3.47.87-2.88,0-3.65-.06-7.16C91,177.18,95,166.38,95,166.38Z"/><path class="cls-1" d="M100.11,190.39s-3.91,9.9-12.17,15.23c0,0-3.94-1.56-14.35-9.54,2-1.51,1.42-1.31,3.14-3.63C88.8,194.38,100.11,190.39,100.11,190.39Z"/><path class="cls-1" d="M23.51,237s7.25-18.23,20.71-29c-2.1-2.24-5-5.35-5.58-8.1-5.27.85-27.62,12.46-29.46,20C9,224.53,23.51,237,23.51,237Z"/><path class="cls-1" d="M71.61,179.66s-7.81-5.74-12.92-5.74-12.92,5.74-12.92,5.74Z"/><path class="cls-1" d="M61.74,182.89s-15.62,0-18.22,0c-3.35,2.91-2.25,12.73,2.6,20.82.89-4.87,9.39-14.37,15.62-16A20.45,20.45,0,0,1,61.74,182.89Z"/><path class="cls-1" d="M63.09,194a8.27,8.27,0,0,1-3.77-3.14S49,201.46,49.88,204.51c1,2.77,10.16,9.06,15.09,9.78C61.74,208.42,61.68,194.66,63.09,194Z"/><path class="cls-1" d="M86.65,208c0-.73-13-5.12-15.84-10.77a21.85,21.85,0,0,1-5,0s.63,10.68,3.14,14.54C72.24,214.3,85.36,210.41,86.65,208Z"/></g></g></svg>