<svg xmlns="http://www.w3.org/2000/svg" width="248" height="71" viewBox="0 0 248 71">
    <path fill="#3A3A35" fill-rule="evenodd" d="M85.229 50.488l-62.476-5.766-5.162 2.83L75.814 59.6l3.164-.319v5.465l5.607 2.355h17.104l5.143-2.282 40.251 5.605 3.412-3.554-29.213-9.122 6.167-5.46-1.1 1.02 8.136-1.465 19.107 2.662-.266.938v3.95l4.252-2.845.695-1.39 8.175 1.138-.467 1.65v3.95l4.251-2.845 1.042-2.083 8.823 1.23-.553 1.95v3.95l4.252-2.844 1.188-2.376 52.247 7.28 1.781-.944 8.02-12.171v-1.2l-7.85 8.95-61.31-15.628-1.469-3.659-4.116-2.398h-4.458l-3.789 2.165-15.165-7.95.575-.51 10.552-11.057.562-7.25-1.814-5.494-7.225-2.444-7.836 2.444-33.242 22.004-.632.495-2.832-2.736-6.568-.943-2.93 1.788L87.766.682l-5.693 1.815L83.928 30.7l-68.665-6.31L1.976 13.493H0l8.308 13.842 2.197 1.441 49.842 9.285-1.002 1.453-1.226 4.25 6.12-2.326 2.388-2.208 7.243 1.35-.814 1.18-1.226 4.25 6.12-2.326 2.11-1.951 4.65.866.519 7.89z"/>
</svg>
