<svg xmlns="http://www.w3.org/2000/svg" width="1440" height="210" viewBox="0 0 1440 210">
    <path fill="#3A3A35" fill-rule="evenodd" d="M1440 49.886l-10.96 26.52-39.723-21.87-8.222-49.924-9.678 53.743-13.382-15.085-21.383 41.983h-9.449l-11.315-30.718-18.208 9.073-11.588-50.126-9.616 23.695-7.64-11.642-12.02 38.073h-10.63l-24.02-44.076-33.722 56.874h-16.527l-14.79-39.229-7.645-23.695-9.27 20.328-7.698-20.328-13.27 44.873-13.493-15.085-32.56 55.092-28.042-93.75-25.564 58.996-10.115-26.43-13.87 39.228-11.861-56.874-8.69 23.738-6.633-17.735-15.718 38.073s-14.883.052-18.534 0c-.228-.003-14.51-20.338-14.51-20.338l-14.846 49-16.607-28.662-18.821 8.583-19.209-58.71-13.662 62.925-18.313-21.87-12.774 43.826h-24.948l-22.698-40.007-10.06 13.836-14.3-17.656L720 92.27h-20.138l-18.477-58.46-11.289 38.38L653.9 54.536s-22.069 43.86-26.558 43.827c-.445-.003-32.58 0-32.58 0l-23.269-40.007-12.1 5.253-14.38-13.722-12.165 22.305-16.85-46.656-28.407 59.718-27.894-35.367-23.44 35.367-36.608-21.645-15.124 12.798-22.252-39.229-14.351 48.076-41.674-21.645-11.865-20.338-20.194 41.983-29.812-21.645L226.745.682l-6.946 60.39h-6.719l-15.907-35.537-13.894 50.871L167 49.886l-12.784 35.367s-10.05 1.593-16.998 0c-1.217-.28-15.92-35.367-15.92-35.367l-14.637 57.363h-18.54L49.598 49.886 21.531 92.27 0 49.886v160h1440v-160z"/>
</svg>
